<mxfile host="65bd71144e">
    <diagram id="v7DR3OZrTKcgggxZ--NC" name="Page-1">
        <mxGraphModel dx="507" dy="445" grid="1" gridSize="10" guides="1" tooltips="1" connect="1" arrows="1" fold="1" page="1" pageScale="1" pageWidth="850" pageHeight="1100" math="0" shadow="0">
            <root>
                <mxCell id="0"/>
                <mxCell id="1" parent="0"/>
                <mxCell id="4" style="edgeStyle=none;html=1;entryX=0;entryY=0.5;entryDx=0;entryDy=0;exitX=1;exitY=0.5;exitDx=0;exitDy=0;exitPerimeter=0;strokeWidth=2;" parent="1" source="2" target="3" edge="1">
                    <mxGeometry relative="1" as="geometry">
                        <mxPoint x="170" y="250" as="sourcePoint"/>
                    </mxGeometry>
                </mxCell>
                <mxCell id="2" value="Dados de barras que compõem o&lt;br&gt;SIN" style="shape=cylinder3;whiteSpace=wrap;html=1;boundedLbl=1;backgroundOutline=1;size=12.25;strokeWidth=2;" parent="1" vertex="1">
                    <mxGeometry x="40" y="230" width="90" height="90" as="geometry"/>
                </mxCell>
                <mxCell id="6" style="edgeStyle=none;html=1;exitX=1;exitY=0.5;exitDx=0;exitDy=0;entryX=0;entryY=0.5;entryDx=0;entryDy=0;strokeWidth=2;" parent="1" source="3" target="5" edge="1">
                    <mxGeometry relative="1" as="geometry"/>
                </mxCell>
                <mxCell id="27" value="" style="edgeStyle=none;html=1;strokeWidth=2;entryX=0;entryY=0.5;entryDx=0;entryDy=0;" edge="1" parent="1" source="5" target="24">
                    <mxGeometry relative="1" as="geometry"/>
                </mxCell>
                <mxCell id="5" value="Execução do fluxo&lt;br&gt;de carga continuado" style="rounded=0;whiteSpace=wrap;html=1;strokeWidth=2;" parent="1" vertex="1">
                    <mxGeometry x="320" y="240" width="120" height="70" as="geometry"/>
                </mxCell>
                <mxCell id="10" style="edgeStyle=none;html=1;exitX=0.5;exitY=0;exitDx=0;exitDy=0;entryX=0.5;entryY=1;entryDx=0;entryDy=0;strokeWidth=2;" parent="1" source="7" target="9" edge="1">
                    <mxGeometry relative="1" as="geometry"/>
                </mxCell>
                <mxCell id="9" value="Análise de margem de estabilidade de tensão" style="rounded=0;whiteSpace=wrap;html=1;strokeWidth=2;" parent="1" vertex="1">
                    <mxGeometry x="644.62" y="90" width="120" height="70" as="geometry"/>
                </mxCell>
                <mxCell id="11" style="edgeStyle=none;html=1;entryX=0.5;entryY=1;entryDx=0;entryDy=0;exitX=0.5;exitY=1;exitDx=0;exitDy=0;strokeWidth=2;" parent="1" source="20" target="12" edge="1">
                    <mxGeometry relative="1" as="geometry">
                        <mxPoint x="905.3800000000001" y="140" as="sourcePoint"/>
                    </mxGeometry>
                </mxCell>
                <mxCell id="12" value="Avaliação de capacidade e hospedagem" style="rounded=0;whiteSpace=wrap;html=1;direction=west;strokeWidth=2;" parent="1" vertex="1">
                    <mxGeometry x="644.62" y="400" width="120" height="70" as="geometry"/>
                </mxCell>
                <mxCell id="24" value="Armazenamento dos dados gerados" style="rounded=0;whiteSpace=wrap;html=1;strokeWidth=2;" vertex="1" parent="1">
                    <mxGeometry x="490" y="240" width="120" height="70" as="geometry"/>
                </mxCell>
                <mxCell id="28" value="" style="edgeStyle=none;html=1;strokeWidth=2;exitX=1;exitY=0.5;exitDx=0;exitDy=0;entryX=0;entryY=0.75;entryDx=0;entryDy=0;" edge="1" parent="1" target="7" source="24">
                    <mxGeometry relative="1" as="geometry">
                        <mxPoint x="610" y="275" as="sourcePoint"/>
                        <mxPoint x="660" y="275" as="targetPoint"/>
                    </mxGeometry>
                </mxCell>
                <mxCell id="34" value="" style="group" vertex="1" connectable="0" parent="1">
                    <mxGeometry x="650" y="207" width="110" height="140" as="geometry"/>
                </mxCell>
                <mxCell id="7" value="" style="shape=image;verticalLabelPosition=bottom;labelBackgroundColor=default;verticalAlign=top;aspect=fixed;imageAspect=0;image=data:image/png,iVBORw0KGgoAAAANSUhEUgAAAlgAAAJYCAYAAAC+ZpjcAAAABGdBTUEAALGPC/xhBQAAACBjSFJNAAB6JgAAgIQAAPoAAACA6AAAdTAAAOpgAAA6mAAAF3CculE8AAAABmJLR0QA/wD/AP+gvaeTAAAzm0lEQVR42u3deZwcdZ3/8fenuufMSS4S5L7lCBkmISdIlGSSsJFDBHVXF1HQn/vjVEFUoAFFQAVZXVeuRVx/HgFFBEIONJhMTjIkRMN9hysnySSZmUx31+f3x4Ai5Oqkuru6+/V8PHw8eLhrdfOub9f3Xd+qqZIAAAAAAAAAAAAAAAAAAAAAAAAAAAAAAAAAAAAAAAAAAAAAAAAAAAAAAAAAAAAAAAAAAAAAAAAAAAAAAAAAAAAAAAAAAAAAAAAAAAAAAAAAAAAAAAAAAAAAAAAAAAAAAAAAAAAAAAAAAAAAAAAAAAAAAAAAAAAAAAAAAAAAAAAAAAAAAAAAAAAAAAAAAAAAAAAAAAAAAAAAAAAAAAAAAAAAAAAAAAAAAAAAAAAAAAAAAAAAAAAAAAAAAAAAAAAAAAAAAAAAAAAAAAAAAAAAAAAAAAAAAAAAAAAAAAAAAAAAAAAAAAAAAAAAAAAAAAAAAAAAAAAAFJYRAYAoDP7a9G49uwd909mwf2BhP1fQTx72dQX1Zt5bZnVyr5Ost8nrXaqV1FtSvclrJMllgaRe79t0taRu7/vvNkvqfN9/t8Hk4Tvb2SKpTdJ6kzpc1ib5epm1y73d3dabwjZZsNYUrgk9WFOVCFa3bgrXLvtB02b2JgAKFoC8Gn3p/T0y9VX7BKHtI2lvl/Zxs33k+pBJAyXrJ3lfdRWmctAh2VrJ17j0lkyvm/sKk1ZIei0MfEWyLb1i7o2nbGR0AKBgAdim4y+f2j+dTB7qFh4amB/qbodIOkTS/pJ6ktBWtUp6WdJzLntW8ueCwJ7pVOezLanJa4gHoGABqBDDU1N7SjbYwqDBzYeY66h3itQepBOptyU9K9nfzH1pmPClybbOJ1j1AihYAErc6Evv75GprR1h7sNM3uBmQyQdxO++aFzSC5ItkftSN3ss2dGxgNIFULAAxFjjN6cNqkraUMlHSz5GsmHqukEc8ZWV9IyZNyu0uVm3OYu+0/QSsQAULABFcmJqVu92dZ5k7k1yjZO0H6mUhZclzXRpel1Q86dHU2PXEwlAwQKQN26jrpg2NGs2waQJkoZLSpBLWctIvtBl0xPu0+ZdO2GxZE4sAAULwO5IpYLh2ZENZuFkyf5NXfdQoXK9JrPfy/yBWtU8+mhqbIZIAAoWgJ004ooZo93CTwfS6S4NIhFsxRsy/V5h8JsF146fSxwABQvAVgxLPTQwCBNnmewLkh9NIsjBs5L/Ohkk/6c5Ne5V4gAoWEBlS6WC48IREwP5lySbKClJKNgNGbmmhqbbFgULHlYqFRIJQMECKsbE86fWrO8dnOWmyyQdQSLIgxdc+nF7m93B+xUBChZQ1kalpg9wDy92t/Mk9SERFMA6l92aCPSjeammVcQBULCAsjEyNa2Ph36BZBeLd/uhODbL7E5PJ65beN1JK4kDoGABJavxspm9qmuyX3XpIkk9SAQx0GrSLZ1bEj9suWHcBuIAKFhA6UilgpHZEf/mphsl7UkgiKG1Ll2771OtP7nnnjOzxAFQsIBYG5madpyHdovkI0gDJWCJB37BwtTEZqIAKFhA7DReNrNXVW32B3J9gd8WSoyb+e2h+dcXpia1EgdAwQJiYeSVDze57DZJ+5IGSnhCeNMD//KC1MQ/kgZAwQKKV6wunlKnnj1+5G7n8ntCmXCX3RZs3HDx/JvPbCcOgIIFFNRxqYcODcLEFEnHkAbK0JNZ15mPXTthOVEAuQuIAMjd8Cse/lQQJlooVyhjRyRM80dcMe1MogAoWECeuY24ctplZvYrSd3JA2Wuh0y/GXHltOsl54oHkAN+MMBOOjI1pbpn2PMOlz5LGqjA2WKKtbaezX1ZAAULiExj6oH66mzyPjcbTxqoWK5HaxM1kx9Njd1EGMD2cYkQ2IHBX5verTqbfIByBU7JdeKWcMvU0Zfez2ufgB3+XABst1zV1/sMSaNIA3iXz00HmfEtqcltZAFsHStYwDY0nre4qr7e76FcAR84Nx9dla26/8jUlGqyAChYQC5n6FY9cM2dkiaSBbC1jqWTunvP2/nrQmBbPxEAHzD8iunfMPPvxeIsKDAd8aFeajygjw7fq6f269dN/brXqK46KUlq78xo9cYtenXtZj39RqtaXlynJ1/foNCdHYkCTCJ+6fxrJn6fJAAKFrBdI1PTJnioByUlivk99uxVq08ct68mDB6k/j1rc/rfrmrt0LQn3tTvFr2qVa0d7FTkU9ZlExde0zSTKAAKFrBVo1LTB4Sh/1XSgGJ9h97dqvWljx6ikxv2UlVi967ip7OhHnz8dd325+e1vq2THYx8WZ3O6JiW6ya8SRRAF+7BAv7OLczqrmKWq/GDB+m354/RqUP33u1yJUlViUCnDdtHvzl/jMYdPZBdjHzpX53wn3M/FvAPCSIAuoy4cuS5Ml1SjM9OJkyXTT5SX/7YIaqpiv5nWVuV0NgjBqpfjxotfGGNQm7PQtTMDtr7Iy+8/tpffvk4YQBcIgQkSY2pB/pVhVVPSepX6M+urUrourOGaOQhhfnoec+t1rd++4Q60ll2PKK2Lgjsw/NSTauIApWOS4SApKqw6sZilKtkwgpariRp1CH9deNnGiK5BAm8T58w1HXEAFCwAI1KTT9K0ueK8dlfP/mIgpardw07sK8unng4Ox954GcPu2LakeQAChZQ4cKsX60i3I/YNHiQPt64d9H+vU8bto9OOoob3xG5RMJ0NTGAggVUsBGph/eX6ZRCf26v+ipdFIMVpK//yxHqXc/bThC5U4elHjmQGEDBAipVqAtUhNWrL3/s0FgUm551Vfri2IMYB4haIhFmvkIMoGABFejE1Kzukp1T6M8d0LNWJzfsFZscPt64t/bsVcuAQKRc+kLXbwygYAEVpSPbcYakXoX+3DOG7xurv+CrSgQ6fdi+DAhEyqTe7/zGAAoWUGFTwGkF/8GZqWnwoNglMfGYQQoCHouHiH9hZqeSAihYQAVpTD1QL9NJhf7cI/bupQE943c5rn/PWh0+qCcDA5Fy2fjBX5vejSRAwQIqRCKsGiupvuDF7oA+sc1k6IF9GBiIumLV1XUPP0IOoGABlVKwpOHF+NwP7xXfVaLD9urFwEAeOpYNJwRQsIBKOea7NRbjc/fpG9+rJfv1rWdgIHIW2lBSAAULqJijvh9SjI/t16MmtpH0jfF3Q0n/1g4mBFCwgMpRlD/lq6tOxDaQbtVJRgXyYS8iAAULqBw8ABHgtwZQsIBy0N6Zje1329yZYQchP1Ip5hpQsADkz5qNW2L73dbG+LuhtJ2ojzDXgIIFIH9WrN0c2+/2yto2dhDyYrVWM9eAggUgf556ozW23+3p1zewg5AX/dWfuQYULAD50/Liuth+t8UvrWMHIS82ahNzDShYAPLnydc3aOWGjth9r5UbOvRMjFfXUNp6qDtzDShYAPIndNf0ZW/G7ntNX/aGQnd2EPKiXe3MNaBgAciv3y16VelsGJvvk86EunfRCnYM8qZOdcw1oGAByK9VrR168PHXY/N97m95TatbO9gxyJst2sJcAwoWgPz72Z+e0/q2zqJ/jw1tad356AvsEORVdkvSSAEULAB519qe1k1Tnyr697jxwSdjUfRQ3mrUyVwDChaAwpj517f0h8XFu/fp3kWv6s/L32JHIO86rZq5BhQsAIXz/Yee0uynVxX8c+c+u1o/evhpdgAKIqMMcw0oWAAKJwxdV927TPOeW13QcvXtKU8oG/JYBhRGtaWZa0DBAlBYHemsLvv1Et33WP4vF9676FVd9usl6khnCR4FkxGXCFF5kkQAxGACyrpufPBJPf7yOn315A+rd311pNtfv7lT33/oKe65QlFUcYkQFCwAxfTI397SYy+u1bljD9bHj91bVcndm5fSmVD3t7ym22c9r9b2NAGjOCcQlqRggYIFoLg2tKX1g4ee0t1zXtIZx+2rpsGDtGev2py2sXJDh6Yve0P3LlrBQ0QRg4kmS8ECBQtAPKxu7dB/P/Ksbv3Tczp8r54aemAfHbZXL+3Xt179e9aqrjohSWrvzGpVa4deXdump1/foMUvrdMzb7TybkHERlasYIGCBSBmQnc9+foGPfn6BsJASfJkmie5o+JwVgEAyKsEK1igYAEAEK2Qe7BAwQIAIFoJJZhrQMECACBKWYXMNaBgAQAQJVawQMECACBiIStYoGABABB1wQqYa0DBAgAgSglWsEDBAgAgWlwiBAULAIDIJxpucgcFCwCASHnWeFUOKFgAAESJS4SgYAEAEDFucgcFCwCAiIXGYxpAwQIAIOKJxplrQMECACBKPGgUFCwAACKfaLgHCxQsAAAi5axggYIFAEC0Qu7BAgULAICoJxpjrgEFCwCAaGeakCe5g4IFAECUjHuwQMECACBazl8RgoIFAEDUBYsVLFCwAACIlGX5K0JQsAAAiJTzmAZQsAAAiHqi4TENoGABABApHjQKChYAAAB2W5IIUIkWXDOBBx+WoBFXTnNSKEFm/N5QcVjBAgDkd6JxUbBAwQIAIErOChYoWAAARN2weBchKFgAAETbr1jBAgULAICIJxqnYIGCBQBAtIxLhKBgAQAQKedJ7qBgAQAQccHiEiEoWAAARDzRcIkQFCwAAKLFChYoWAAARI3HNICCBQBAtJwHjYKCBQBAxFjBAgULAICIJxpe9gwKFgAA0eJVOaBgAQAQecPiHixQsAAAiLZfsYIFChYAABFPNNyDBQoWAADRYgULlShJBOWhMfVAfSKsGmum48w1TNIBkvaR1I10ABS3YUV7D5bPafAySWazpBWSXpLpMYW+SPWJWTa0pY1BQ8FCEZ2YmtW9I9txhpmd6qGNl7xOTi4AYtavWMHalm6SDpd0uFwTZSa1h23e3DBTof9B2fS9Nnb5JmKiYKFAjvv29AOCwL/UEW45V2Z9ujoVzQpAfBsWIey0erlOkdkpSlbf4nOG/EYW3mRjlj1DNBQs5Mmo1PSjwqxfLfNTJCVIBEApMDn3++6anpKdJ098wZsb/iCFV9mYJ5YTCwUL0RWrAWHo14ehf05GsQJQcg2LFazdk5DrE1Jwqs9puFtB9nIbvWwVscQbZxWx5jbiymnnhqE/LenzYtUKQCkeybhEGF3Rks5RmHjKZw8513n8RayxghVTo1LTB4TZ6XdK+hfSAAC8Rx+Z3abmhk96s862MUveIJL4YQUrhkampk0IQ18uo1wBKH3cg5U34+Ra6nOPGU8UFCzswPArp13ooR6U1I80AAA70F9hMNXnNFzGJcN44RJhTDSet7iqeuCaO136LGkAKC+sYOVZQtL1am44whcHX7ShLWkiKT4GfRzKVeqB+qo91/6BcgUA2A2fU3s41ZsP60EUFKyKN/rS+3tUhVUzZT6JNACUI5Mx1xTOSfL6hylZFKyKNvLiKXXZmpo/ShpFGgCAqM7d5fUP+6wjuxMFBaviTDx/ao336Hm/TCeSBoBy5sY9WEUpWcnq3/vUg2uIgoJVUYeb9XsEt0saRxYAgDwZp+497uavCylYFWPEldOu4oZ2AJVzSsmT3IvGdJbmNFxBEBSssjf8ioc/JdmVJAGgcuZ4bnIv8g5IefOxZxEEBat8y9W3ZxxiZrdKLNcCAApYsdzv8HmNhxMFBavsnJiaVWtB+FtJPUkDAFBg3RWGU3xxYz1RULDKyhbvuEVSA0kAAIrCdbTaw5sIgoJVNkakpp3kbueSBIBKZO5OCrHxJZ9z7ARioGCVvOGpqT0V6n/EfVcAKlRoomDFit/hs4b0JgcKVmmfuYWJmyTtQxIAKvY4yApW3HxISd1ADBSskjUyNX2U5OeQBIAKn2ooWPGrved687HHkwMFq/SkUoHC8BZxaRBApU/lrGDFcrdIusWdHkDBKjEjwhFfcNlQkgAAxJJ7g+Y2fJ4gKFglo/Gymb0kfYckAICb3ONdsnSdz2zsRRAUrJJQXZP9qqQBJAEAXCKMuQGqCy8hBgpW7B13+SN9XbqQJADg3YbFTe6x5rrI5x3ZhyAoWPEOtCrzdfE6HAB4zwTOClbM9VRY81VioGDFVmPqgX6SvkISAPAPZhSsEijBF/rcwdzaQsGKp2RYfYmkHiQBACgx3RQGFxADBSt2GlMP1Jv8PJIAgH8WOvdglQb7Pz59cDdyoGDFSjKbPFtSX5IAgPdN21wiLBV91C3xWWKgYMWIm5mdTw4AsLVDJM/BKqF9dTFPd6dgxcbI1IyTJR1OEgCAEneo5gyZSAwUrHgU/jDk3isA2NYxUhaSQik1AzuXEChYRTf8m4/sKdkEkgCAbeAerFJrxCf77MZBBEHBKu5xI5k5W1IVSQAAykRSyv4bMVCwiu1sIgCA7ZyI8iT3EtxpwRfcZQRBwSqKEVfMGC1ubgeAHU3WFKyS44dpXsMIcqBgFWf4WfhpUgCAHfQrVrBKdJITcxwFqwhSqcCk0wgCALYvNJ6DVaIF65M8E4uCVXDHZUeMlrQXSQDA9rGCVbIGas6QkcRAwSqohOkTpAAAO9OwuAerhJ1BBBSsAnJzLg8CAMq+HNsZ/DUhBatgRl0xbaikfUkCAHZijuYSYSnbW/OGDCUGClZBuIz3NAHATuIm91Kf9HhbCQWrYGNNTaQAADt70GQFq7T3H3MeBasATkzN6i3pOJIAgJ1jvOy51A33WUN6EwMFK6/a1XmSpCRJAMDONizbGNWmfMonEwRacElVBR8lBgpWfo8T7iyVAkBuWiPb0oEv1hBnEXjI3EfByvcg0zhCAIBcTkyz0RWst1VFokXZi8x9FKz8GZOaua+k/UgCAHKYmhPJDZFtrD7NClZxHODzjvkQMVCw8iIbZkaTAgDkJq0guhWs0HqTaJGECeZAClZ+uNkoUgCA3HRTYlVkG7NEHxIt1iToFCwKVr7GlsaQAgDk5K1HU2M3Rbe5kIJVPMyBFKzoDU9N7WnS0SQBADl5PtozXetLpEUz2JsP60EMFKyIJUdI4vkrAJALi7hg8YdGRZ0I5fXDiYGCFe0xIpvl6e0AkKvQX4i4sFGwismduZCCFfVJmI4hBQDIcT5OBE9HW9hsX1It5mQYDCEECla0BwmzBlIAgFxlF0Q7a/mhZFrU2ZCCtbNdlAh2bHhqak8Lg/XkBQC5TDD+4vxrJh4U2dS+uLFe7eFGFgeK27BUVd3bRixsJYodnAsQwU6MpmxwDOUKAHITmjVHusGO8AjmrRj05s4t/EU9BSuqkJzLgwCQe8OaG+32/ChCjUPF4j4sClZEPDBucAeAXCeYhGZHPLPziIBYFCzuw6JgRTaWdCQpAEAOx01p+fxUU7R/QRhQsGLBxUoiBSsy/NUKAOQ2CU+JdHPTB3eTO/f+MCdSsMrFqNT0AZL2IAkA2HlhIrw30g3WJcdISpJsLPTxhcfxyiIK1u7JKqSpA0BO7K8LU5OejHaTPo5cYySTZm6kYO3uaZgdQggAkAP3X+ZhqxSsOMn6YYRAwdrd0yYKFgDsvM2W0B2R9rXmhr0kcf9VvOZGVrAoWLs5hMRrGQBg54+ZumN+asK6iLd6unjYc9x2NIsPFCxaOgAUSDYTJP8z8q26Tifa2GFupGDt9i+bN7cDwM6dkP7+sdRJL0Z6BJ47eIDkJ5Bt3Ha19iMECtYuG33p/T0k9SIJANihzjDIfDvyrWaT/yopQbwx4+rlC4b3JAgK1q4dLWpqWL0CgJ1g5v+5KHXys9Fv2P+ddOM6SXbuTQgUrF2STGgfUgCAHVrV2ZH8TtQb9dmNx0riXbBxlQgpWBSsXRT6hwgBAHbo2y03jNsQ+VYt/A+ijTEPWISgYO1ivzLjEiEAbK8Duc9YECy4M/K5e3ZDf0mfIeE4FyxnBWs7eK/T9jF4AGDbVndm7WxdmwrzcPr/ZblqiTjO7dqYI7c7hLHtcELaOQBsg0v27y3XTXgz8g1PH9xNrvOJOPYjgEuEFKxdHDtme5ICAGyF6eYF1zQ9nJdt1wVfkdSfkGOPOZKCtctHkH5kAAAfOP18oNZqLsvLlhc31svsa2RcEvoSwbZxD9b2f+oMHgD4ZwvTQeZTC1JjM3nZekf4VUkDiLkksAixHbw8cxtGX3p/j2xtTStJAMDfPWmBjo/+Zc7vnNIuOGpPpauelcQTwktFW7a7NS3bTBAfxCXCbf3Qq5J9SAEA/n42vtyy6fH5KleSpEzVdyhXJaZbFVd6KFi5/s6ruMESALrq1YJsOvmR+d+d/HreTmrnDhkm1+fJusSEXCakYOUooZBBA6DiuesPtnHDRxd976S1efuMWScm5cGt4qXOJThZZpgrKVg5yopLhAAqWWjm1+/7dOsZ828+sz2/k3TrJXJvIPJSHCUBlwi3gb8i3NYZlVlfyQkCQCV6w+Sfm3/1xD/l/Vj7l8ajZeHVRF6izChY28AK1rZxoyWAypsv3Wdkg2zj/GsKUK6mHlyjIPxfiVfilK6wBxlsHStY2/rhS914hgWACrLC5JfNv3bCbyQrzPJ99+7XSzqG6EtZ0J0MKFi5ncWZunGFEEAFaJP049qg5juPpsZuKthJ7Owhp8jsQuIvcWFYTwgUrNx+/PLurGABKPNidbcH4XULU5NeK+jxdc4xh0r2C/Gw69IXGCtYFKzcmKsbKQAoQysl/1k6yPykJTV5TcFPXucd2UfZxB8l5z7XcuCiYFGwch403Ti3AlAmtpj0SOj+m02JjVOWp87sLMphdXFjldrDKZIfxi4pGyxGULByRisHUMKs3eQzQul3mS2JP7bcMG5DUc9ZXabm8E5JH2PflNU4Y66kYOU4ZMy7O0tYAErHW3ItlnmLAmuuVXXzo6mxHbH5ds0N35f0WXZTuXFWsChYOQ4ZGX8ZAaDY0pI2vfOfDkmtLm02+UtS8JK5vxQm/MVMp73Qct2EN2N7PJ3dcJ2kr7I7yxIFi4KVG5PXsoKFAgslvSi3Z920wtxfdfmrQcLWSFr37n8SHRnPbmnryPvrS4AoytWcY1OSX04S5bqDVUMIFKwcx4yRDfIpI2mZzBbItchdfws2bXiS0oSyOYa6THOG3CT5RaRRxgJ6BAUrZ5bgXYSIdr7RE2aaIdPMtNLzWlKT24gFZTnYlx9ZrebqO2Tcc1X+O5seQcHKfdSQDXZXVvIFLrsnGQT3zE2Nf4NIUPZHzjlH76F1yd9LOpE06BEEg61JEAF20RNy/590IvOrYjzIEShauZrXeLiy/geec0WPAMFs+0AhJbnFHTnokOz/KfCfLkhNeJw4UHHHzNlDTlEY3i2pF2lUFBYjKFi5MQYNds4qyf4zHXTeymoVKrJYTT24Rt27Xy+zC8WfXlfiCKBHULByVkUE2I7Vkv/UA79pYWpSK3GgIqfW2Q1HKLBfyr2BNCqVsRhBwcoZgwZbs1Gu69OJ9I/4K0BUbLGadWJSidZLZH613GtJhB4BgqFgYVdlXXaHMomrFl530kriQMWWq9mNx8o23CppKGmAHkEwu4J7CfCuZXI7b+G1TQuJAhVbrGYNG6iqzLXy8BxJAYkAFKxdlRH3YVW6Drmuqk3U3PRoamyGOFCRxWpxY73a/WIp8w25upMItjJXgoKVkywFq6L9LQiCz85LjV9KFKjIYjV9cDfVB19Ue3iZpEEkAgoWBSsqaUncvFmB84qkmzYGrd9cnjqzkzhQcT+A2Q39FejLcp0vqT+JYAcjJksGFKxcZ9ksN2FVnI0e2DkLU033EgUqr1g1HisLvyLpX+WcXGJnGStYFKwchwzLnpXm6TDInrIodfKzRIGKKVVzBw+QJz8j989L4WASwS5gBYuCxaDBtqeZdJA5lSexoyJGe3PDXnI7TdInFPoJkvNIGuwOFiMoWLmyTNftOCjrycb0i0228Vzut0LZjvHpg7upLjlG0kkyHyfXYMm5AwIULApW0Q5LrGCVv/9eaAv+r1KpkChQNmWqPnm4PDxagR0n10hJR/G+OOQRcyUFKzcmz/De0rJ2w4JrJnyDGFAapcmrVV0XqKOzj4JEH1nYR65+kvaTbF+59pP5IZL2l9xkxgI8CoUVLApWjgc12RZSKNv2fN2Cqyd8K7Zj7y/D9pFlDpT8AMkOVOAHyO0ASbWS7yFZjaR6ST3FK50qR2daCkxS+L7y5Lx3AsXUQQQUrBznYN/MClZZ7tifxKlc+eLGKrX7YCkcIwWjJf+IlBnw7pft+n+yf/oXAIAY2UwEFKzcJj63TcxlZbZPTb9YeHXTBUX/HguP66vO9CmSPqn28KOSqruKE9d0AJTcWSsFi4KV45AxbWa6K6NyJc3usy48T7Ki7FafdWKtkq2flutT6kx/lN8egDI5um4iAwpWrhMyg6Z8PF3VmTn14R//S8Hvq/O5gwcoTHxe2nCBpL1YFQVQZpgrKVg5ToymzcYSVjnYqDBxevP1E94u6PiZM+xAWfYKhf5pSTXsBgBlqo0IKFg5Mdkm7okp/Z7sgZ2z8JpxTxXsA7ueQ/R1KXMZ73MDUAFH2Y2EQMHKccxoM1dzSrwkm/9wQWrCvQUaL6bmY8+W/LuSDyJ9ABUhCFjBomDlODnzp6elXZClpRttY0Eex+BzBw/QnMRdMp9E8gAqS8g9WBSsnLUSQcnqSAT22UK8X9BnDzlZod0lU39iB1B5Ai4RUrByY+5reR1qiXJdNS/V9Le8fsSsE5NKtv5A8gvE0z8BVOzx1tcSAgUr14a1lnmzJC1Lr+x3c16PJ4sb69XROkXuJxM3gAqfK9cQAgUrJ6EHa4znNJTcbgvcv9xy29B03srVvCP7qD38o6TRxA2g4mUpWBSsHCXCzJowwXt0S4nLbp937YT5edt+c+O+yvoMyQ8jbQCQlEhyiXAbAiLYuk1bkrTy0rIxDDKpvJWrhcf1lYfTKVcA8N4WUb2aEChYOVn2g6bNkrWTRGkw+fceS538Vl7K1byRdepM/1HS4SQNAH/XbqPmM09SsHZpamXpszSs7Awyt+RlBEz5ZELZLb+SNIqYAeCfsHpFwdrFyVXiMmFJ7Ci/sSU1OT9PEx70wg8lP5WQAeAD1hEBBWtXrSSC+O+jdCLzs7z0ttlDTn7nOVcAAOZIClZUTPYaKcR+L/04H6tXPnfwAJndIR6GBgDbOv6+SgYUrF0UUrDibUsQ6PbIy5XLlE3cJWkgEQPANg+WzJEUrF3s5tIKUoj1DvrfeammVZFvt7nh8zLx4mYA2P4xmIJFwdplDJ54/7j/O/ITsubDekj6DuECwI6Owc4iBAVr14QBgyfGv+y/LkhNeDzyzXr9tyQNIl8A2IFswCIEBWvXJNvSFKy48vCOyDf5l8EHSLqQcAFgJyQ2U7AoWLtm7o2nbJS0gSRiJ5NOZH4V/cEieaWkWuIFgB0wbbAxz2wkCArW7owi/gw1fv7Skpoc6UNgfdawgXL/NNECwM4cNPUKIVCwdncUPUsGsfth3xv5NhOZr0iqIVwA2CnMjRSs3Z3LjUEUs12Szur+SDc49eAamc4jWgDYScbcSMHa/en3OTKIlaUt1014M9It9uj5GUl7Ei0A7KQwZG6kYO1mSfeAlh6rHaKZeSjR3HsFALlI2DOEQMHaLVWZDAWrjAuWLzyur6SxBAsAOUhWMTdSsHbPnO9NWi3pbZKIhXRa6XmRbnFL52mSkkQLADttnQ1ftJYYKFhRoKnHw19bUpPbIt2i2SeIFQBy4OLyIAUrsln4b2QQh9+05ke6vcWN9ZI+SrIAkNOJKXMiBSuiseS+lBRisR8WR7rBtnCYpGqSBYBchMyJFKyIhlKCghULCVsW8egfSagAkOukKOZEClY0km2dT0gKSaK4P+m2TRH/WXBIwQKAnI+cYXoZMVCwIvHOS59fJImienHZD5o2R7Uxd5mMggUAubHnbOzyTeRAwYpyUC0hgyLyiF/LMHvY3pL6EywA5CJ8ggwoWFFjUBV1pPqr0W4vfRChAkCOjPuvKFgRc2kRKRTxN+0RFywFB5AqAOQoNOZCCla0kh0dCyRlSaJIv2nXimgbs1OwACA3GWU7FxIDBStS79zozl9OFGugmlZHu0U7kFQBICdPcIM7BSs/THMJoUjRu9ZFvMF9SRUAcsIcSMHKDw+dwVW08H1dxFvsSagAkNOBuJkMKFh5EYYBBatIElm1RrzJelIFgBxkwvmEQMHKi8e+27RC0sskUXhtYVUnBQsAisVftLHLXiMHClb+mB4hhMLrUZfcEvF+7E6qALDTB82ZZEDBym+HN5tOCoX3qP4S7QqWs4IFADkULOY+ClZ+1an6EUkZkiiwVCrql21XESoA7JSMOuzPxEDByqtHU2PXi6e6AwAqhi+wcS0byIGClXfmYqkUAFAhk57NIAQKVmHGmvxhUgAAVMak59MIgYJVEPOunbBY0qskAQAocys0auliYqBgFazOu+n35AAAKHP3mMmJgYJVyI71O0IAAJS1kLmOglVgC7VwnqQ3SAIAUKZe1wlLFxADBauwUqlQXCYEAJQtu9dMITlQsAo/9Mx+TQoAgPJsCP5bQqBgFcX8VNM8SU+RBACgvNgzNnrJfHKgYBXT3UQAACivfhXeQQgUrKLyTPLnktIkAQAoExmlq35JDBSsolp43UkrJZ5yCwAoF/agjX3sLXKgYBVdKLuVFAAA5dGvwtsJgYIVC4uuaZoqbnYHAJR+u3pGo5dyVYaCFZsB6ZL9mBwAACXuJp59RcGKlXTQebektSQBAChR61Rn3NxOwYqXltTkNpfdRhIAgBL1Uxva0kYMFKzYyQSdN0naSBIAgBKzWUGWW10oWPHUkpq8RtJPSQIAUFLMbrHRy1YRBAUrtsJ08vuSWkkCAFAiWhVs+SExULBibdH3Tlpr0i0kAQAoDXazjVq+jhwoWLHXuSXxQ0kstQIA4m6VOuxmYqBglYSWG8ZtMPk3SQIAEHOX27iWDcRAwSoZ84OFd0laRBIAgJh6XGOW/JwYKFilJZUKA/eLJDlhAABixmXBhTy1nYJVkuZdO3G+mfPSTABAvJh+ZmNamgmCglWyQvOvS3qVJAAAMfGK1HYZMVCwStrC1KRWk58jLhUCAIrP5fYlG/MMbx2hYJW++ddM/BPvKQQAxKBe3WonPD6dIChYZaMuqL5I0hKSAAAUhemvStZeQhAUrLLyaGpshwU6U7xGBwBQeJsUBGfaqPntREHBKjvzUxOel+tccT8WAKBwXPJzbFTL00RBwSpbC66dMEWyq0kCAFAQpqvs+KX3EAQFq/xL1jXjrzHpf0kCAJBXrt9q9JLvEAQFq1JOJ7z32+G5kmaSBQAgT2Zq08Z/N+O2FApWBXn4x5O22MbWUyTNIg0AQMTmqi17mk16fgtRULAqzvybz2yvDWo+Lvlc0gAARMOblemcYE3LNpMFBatiPZoauykdZMab9BBpAAB20yPKpCfa2OWbiIKCVfFaUpPbOt/qd5qbfkEaAIBd4rpbmV6Uq5hIEkFMStZtQ9OS/n34FdPnmvl/sW8AADspK+lbOn7JjdzQHh+sYMXMwmubbnPZJEmrSQMAsAOrJE2w45fcQLmiYGFHJeuapplBYEfJ9SBpAAC2YaZMDXb8kkeIgoKFnTQv1bRqwbVNH5d0nqR1JAIAeMc6uZ+rMUuabMySN4iDgoWcmS+4ZsLtVenwcMnuVNd1dgBAZcrKdIdch9sJS+/gkmDMZ3AiKB3Drph2ZMJ0taRTJSUq6d99wTUTIh2rPqeBAxOA0ilW0n1yXWUnLHmSOChYyJPRqRl7ZcPseZKdL6kPBYuCBaAstUr6uTJ+s41d+jJxULBQICemZnXvyHacYWanujROUj0Fi4IFoKS1STZDHt6vbPpenmlFwUKRNaYeqE8qeaLchptrmKQDJO0jqRsFi4IFIJY2S1oh14sKtFjyhQrqZtmo+e1EQ8ECShIFq0QPWMcv4ZgFoCTwV4QAAAAULAAAAAoWAAAABQsAAAAULAAAAAoWAAAABQsAAAAULAAAAAoWAAAABQsAAAAULAAAAAoWAAAABQsAAICCBQAAAAoWAAAABQsAAICCBQAAAAoWAAAABQsAAKAMGRGgEvmcBicFoEATzfFLmGtQcVjBAgAAoGABAABQsAAAAChYAAAAoGABAABQsAAAAChYAAAAoGABAABQsAAAAChYAAAAoGABAABQsAAAAChYAAAAFCwAAABQsAAAAChYAAAAFCwAAABQsAAAAChYAAAAFCwAAABQsAAAAChYAAAAFCwAAABQsAAAAChYAAAAFCwAAAAKFgAAAChYAAAAFCwAAIAKkCQCACgiC6TuR0m9h0ndPyzV7S9V95MS9V3/92yb1Llaan9F2vSUtH6RtHG5pJDsgDj/tIkAlcjnNDgpoKhq9pQGnSUNmCRVD8jtf7tlpbR6qvTmlK5/jvtEc/wS5hpQsAAKFpBHVXtI+/2HtOdkyap2cyCnpZX3S6/8VEqvp2ABMcI9WABQKP0nSo2/lwaevvvlSuraxsAzpMb7pP5N5AvECPdgAUC+WVI66HJp4Gl5OpL3kg77ntRrqPTCDZJnyBwoMlawACCvR9la6Yib81eu3mvgJ6Qjbur6TAAULAAoS5aUPvx9aY/RhfvMPcZ0FbooLkECoGABQOwcdHlhy9W7eg+XDvo6+QMULAAoM/0nFeay4LYMPEPqN579AFCwAKBMJHtJB36t+N/j4Mulqt7sD4CCBQBlYP/z41Fskr2kfb/M/gAoWABQ4mr27HqIaFwMPE2qGch+AShYAFDCBp0Vr7/gsypp0CfZLwAFCwBK+JDaf2L8vtaAk7teKg2AggUAJafHUV2XCOOmeoDU/Qj2D0DBAoAS1HtYfL9br2HsH4CCBQAlKM6rRN0/zP4BKFgAUILq9o3xd9uf/QNQsACgBFX347sBoGABQKQS9Xw3ABQsVDLfSAZAQbQSAShYQMWwN8kAkcu28d34rQEULFQw1/OEgMh1ruG7feC35i8wMEDBAipn5C8mBESu/dUYf7eXi/O5Zo8xMEDBAipF6IsIAZHb9CTf7QMFK+S3BgoWUDGSdX+WtJkgEKn1Me4S64uykNSm2sSjDAxQsIAKYaPmt8v0CEkgUhuXS1tWxu97bXlL2vRUMX5pM2xoSxsDAxQsoJKE/gdCQMSDSlo9NX5fa/XUru9WaB7ez5gABQuoNPWJKZLWEQQi9eYUydMx6nyd0htTivHJ65VN38uAAAULqDDvXLq4iyQQqS0rpZUxWrhZeZ/Uuarwn+t2h41dvokBAQoWUJm/gB9LyhIEIvXyf0np9cX/HpkN0qu3FuOTs/LMTxkIoGABFcpGL3lFEveJIPpi8+INxf8ez19XrKJ3n31k2UsMBFCwgEqWCL4lKUMQiNTq6dJbvyve5785RVozsxifnJWFKQYAKFhAhbNRLU9L+gVJIHIvfE9aO6vwn7tujvTi94v0g9JdNuaJ5ex8ULAASNVVl0paQxCIlIfSM9+S3m4ubLl6+jLJi3Jr4TqF+iY7HqBgAV0n3cMXrZU7EwOiF3ZIT14ivVWAJxa8OUV66pKuzyxKofRv2AlLVrPTAcmIAHh3bpBp7rEPyP1k0kBe9BsvHfQNqap3tNtNvy29cH2x7rl613SNWTLRTM6OBljBAv5xtmFyWeYcSStJA3mxZobUclrXSlPYufvbCzulN38rtZxe7HK1Wpnk2ZQr4D1zChEA/8znHjNeYTBVUoI0kDfVA6S9zpL6T5Jq9sztf7tlpbT6oa4ntBfjIaL/LCtpgh2/hHd7AhQsYAcla/axl8r8BpJA/gVSjyOkXsOk7h+W6vaXavpLifp36kubtGWV1P6KtOlJaf1j77y4OYzLv8DX7PglP2Q/AhQsYMcFy2Vqbvi5pM+RBrCtH4ruthOWnE0QwFZPnQB84MzD5KoLvijXVNIAtvojeUjZXl8kCGAbPxEiALZzgr64sV7t4QxJo0kD+Psvo1l1iaZ3XpgOYCtYwQK2dwYytKVNbdkmSX8iDUCSNEfWPolyBexg/iACYCfO1xc31qvN75P5eNJABXtUmc7JNnb5JqIAto8VLGBnzkSGtrSp75bJ4p2FqNizDP1WidpJlCtgJ+cNIgBynGfmDLlQsps4QUHFVCvZNRrz+NU8SBSgYAH5nXGajz1LHt4uWQ/SQBmP9I2SvmDHL72HLAAKFlCYqWfOMYdKwRRJx5AGytCTsvBMG/PEcqIAcsclDmBXz06Of+JZJWpHSrpV4tIJyufcQa6fKdOrkXIF7MYcQQRABDNS1/sLb5e0L2mghL0i83NtzNKZRAHsHlawgCjOVEY/MUNV1UdLfptYzUIJniPI9TNZ29GUKyCieYEIgIhnqrlDhilrt8g0kjRQAh6X+wV2wtK5RAFQsIB4l6yul0V/VtKNkvYkEcRvkGqtzK/Vm4f8xM68J0sgAAULKJ05bGZjL9WFl8h1kaSeJIIYaJXpR2oPbrJxLRuIA6BgAaVbtOYd2UfZmgtkfpFcvUgERbBZ0p0Kst+10ctWEQdAwQLKp2jNbugv8wsl+5KkfiSCAlgj6WfKBLfY2JY1xAFQsIDyLVpTD65Rjx5nSbpU0pEkgugHmZ6X+U9Ul7jdhra0EQhAwQIqZw50meYOmajQviTTJElJUsFuSMv1sAK/VaOXPsy7AwEKFkDZmjVsoJLpsyQ7R9JgEkEOh/JnJL9LmeTdNvaxt8gDoGAB2FrZ+suQUUrYp+Q6XdKHSARb8bqk3ynQb2z0kvnEAVCwAORStpqPOVKe+KTc/1Wmg0mkoq2QdJ8suEejW+aZKSQSgIIFYHeKlss0b8hQuU2Qq0nScHHPVrnLSFoo03SZT9OopYu5rwqgYAHIZ+Ga2dhLdf4xedgk2ThJB5BKWezZFyU9Igumq93+xMNAAQoWgGJOy7MbB8l8qOSjJY2RNExSNcnEWlbSM5I3SzZXGZ9tY5e+TCwABQtAXAvXrCO7K1k9QubD5EGD5EMkHSQpIJ2iCCW9INlSWbhEbo8p07nAxi7fRDQABQtAKZeu5sN6KKwbLAuGSDpG8qMlHSqpD+lEGbTWyvScZH+VwqUKtVRhehllCqBgAaikPrDwuL7KpA9V1g+T7FAFOlSuQyTtL15SvS2tkl6W6TmFelbyZ5WwZ5SsetaGL1pLPAAFCwC2Xb6aD+uhsH4fyfaR+Yck7/rnrudzDVTXOxX7Sqork3/ldklr1fUOv7ckvS75CslWyK3rn4O2FTbmmY2MDgAULAD5LWKLG+vVoX7KZvrKEgMUhH0VWl+Z6iX1lqxOCuukYA/Ja98pZHtIqpX8PeXMer/v2FQlqfv7Pm6TpPR7P17y9e/ZRrukDklvdxUmb5e0Xgr+8c+uNgW+VuZrlNFqJZJrVas1vLcPAAAAAAAAAAAAAAAAAAAAAAAAAAAAAAAAAAAAAAAAAAAAAAAAAAAAAAAAAAAAAAAAAAAAAAAAAAAAAAAAAAAAAAAAAAAAAAAAAAAAAAAAAAAAAAAAAAAAAAAAAAAAAAAAAAAAAAAAAAAAAAAAAAAAAAAAAAAAAAAAAAAAAAAAAAAAAAAAAAAAAAAAAAAAAAAAAAAAAAAAAAAAAAAAAAAAAAAAAAAAAAAAAAAAAAAAAAAAAAAAAAAAAAAAAAAAAAAAAAAAAAAAAAAAAAAAAAAAAAAAAAAAAAAAAAAAAAAAAAAAAAAAAAAAAAAAAAAAAAAAAAAAAIBS9P8BrRzpx8IcTjMAAAAldEVYdGRhdGU6Y3JlYXRlADIwMjEtMDUtMDRUMTc6Mjc6MTErMDA6MDDBHo2zAAAAJXRFWHRkYXRlOm1vZGlmeQAyMDIxLTA1LTA0VDE3OjI3OjExKzAwOjAwsEM1DwAAAABJRU5ErkJggg==;clipPath=inset(10.67% 11.33% 11% 11%);" parent="34" vertex="1">
                    <mxGeometry x="10" width="89.23404255319149" height="90" as="geometry"/>
                </mxCell>
                <mxCell id="20" value="Algoritmos de análise em linguagem Python&amp;nbsp;" style="rounded=0;whiteSpace=wrap;html=1;strokeWidth=2;" parent="34" vertex="1">
                    <mxGeometry y="90" width="110" height="50" as="geometry"/>
                </mxCell>
                <mxCell id="35" value="" style="group" vertex="1" connectable="0" parent="1">
                    <mxGeometry x="170" y="230" width="110" height="140" as="geometry"/>
                </mxCell>
                <mxCell id="3" value="" style="shape=image;verticalLabelPosition=bottom;labelBackgroundColor=default;verticalAlign=top;aspect=fixed;imageAspect=0;image=data:image/png,iVBORw0KGgoAAAANSUhEUgAAAfQAAAH0CAYAAADL1t+KAAAACXBIWXMAAA7EAAAOxAGVKw4bAAAAO3RFWHRDb21tZW50AHhyOmQ6REFGMEVULTlOeEU6NCxqOjc5NTYwMTc4MzQ2MTExMDgyMDgsdDoyMzExMTMxNxbuR/8AAAThaVRYdFhNTDpjb20uYWRvYmUueG1wAAAAAAA8eDp4bXBtZXRhIHhtbG5zOng9J2Fkb2JlOm5zOm1ldGEvJz4KICAgICAgICA8cmRmOlJERiB4bWxuczpyZGY9J2h0dHA6Ly93d3cudzMub3JnLzE5OTkvMDIvMjItcmRmLXN5bnRheC1ucyMnPgoKICAgICAgICA8cmRmOkRlc2NyaXB0aW9uIHJkZjphYm91dD0nJwogICAgICAgIHhtbG5zOmRjPSdodHRwOi8vcHVybC5vcmcvZGMvZWxlbWVudHMvMS4xLyc+CiAgICAgICAgPGRjOnRpdGxlPgogICAgICAgIDxyZGY6QWx0PgogICAgICAgIDxyZGY6bGkgeG1sOmxhbmc9J3gtZGVmYXVsdCc+RGVzaWduIHNlbSBub21lIC0gMTwvcmRmOmxpPgogICAgICAgIDwvcmRmOkFsdD4KICAgICAgICA8L2RjOnRpdGxlPgogICAgICAgIDwvcmRmOkRlc2NyaXB0aW9uPgoKICAgICAgICA8cmRmOkRlc2NyaXB0aW9uIHJkZjphYm91dD0nJwogICAgICAgIHhtbG5zOkF0dHJpYj0naHR0cDovL25zLmF0dHJpYnV0aW9uLmNvbS9hZHMvMS4wLyc+CiAgICAgICAgPEF0dHJpYjpBZHM+CiAgICAgICAgPHJkZjpTZXE+CiAgICAgICAgPHJkZjpsaSByZGY6cGFyc2VUeXBlPSdSZXNvdXJjZSc+CiAgICAgICAgPEF0dHJpYjpDcmVhdGVkPjIwMjMtMTEtMTM8L0F0dHJpYjpDcmVhdGVkPgogICAgICAgIDxBdHRyaWI6RXh0SWQ+ZDVhNTRjYTUtNjZlNC00MWQ4LTg3OTMtNTgxMjkzOTlhYTZhPC9BdHRyaWI6RXh0SWQ+CiAgICAgICAgPEF0dHJpYjpGYklkPjUyNTI2NTkxNDE3OTU4MDwvQXR0cmliOkZiSWQ+CiAgICAgICAgPEF0dHJpYjpUb3VjaFR5cGU+MjwvQXR0cmliOlRvdWNoVHlwZT4KICAgICAgICA8L3JkZjpsaT4KICAgICAgICA8L3JkZjpTZXE+CiAgICAgICAgPC9BdHRyaWI6QWRzPgogICAgICAgIDwvcmRmOkRlc2NyaXB0aW9uPgoKICAgICAgICA8cmRmOkRlc2NyaXB0aW9uIHJkZjphYm91dD0nJwogICAgICAgIHhtbG5zOnBkZj0naHR0cDovL25zLmFkb2JlLmNvbS9wZGYvMS4zLyc+CiAgICAgICAgPHBkZjpBdXRob3I+THVpeiBFZHVhcmRvPC9wZGY6QXV0aG9yPgogICAgICAgIDwvcmRmOkRlc2NyaXB0aW9uPgoKICAgICAgICA8cmRmOkRlc2NyaXB0aW9uIHJkZjphYm91dD0nJwogICAgICAgIHhtbG5zOnhtcD0naHR0cDovL25zLmFkb2JlLmNvbS94YXAvMS4wLyc+CiAgICAgICAgPHhtcDpDcmVhdG9yVG9vbD5DYW52YTwveG1wOkNyZWF0b3JUb29sPgogICAgICAgIDwvcmRmOkRlc2NyaXB0aW9uPgogICAgICAgIDwvcmRmOlJERj4KICAgICAgICA8L3g6eG1wbWV0YT48/g1eAAAb+ElEQVR4nOzdv2pl1QIG8C+OyOg4DiOIIiKKjWglFoIoFv7BwkIfwRfxAXyB0VKiKQQLJQw2KWyCYJEmSCYWkkFUEk8IhDMOkXBucdC5I1evY/bea+21fz84/dd97L32Wd/K4rnnFgEARu2u0gEAgLNT6ADQAIUOAA1Q6ADQAIUOAA1Q6ADQAIUOAA1Q6ADQAIUOAA1Q6ADQAIUOAA1Q6ADQAIUOAA1Q6ADQAIUOAA1Q6ADQAIUOAA1Q6ADQAIUOAA1Q6ADQAIUOAA1Q6ADQAIUOAA1Q6ADQgLtLB4BqrKwkjz2WvP12cnJSOg3ccnqafPdd8tVXpZNQMYUOv7vvvuStt5J33y2dBG73yy/Je++VTkHlvHKH391/f/Lii6VTwO0Wi2R3N/n669JJqJxCh2T5uv2pp5Jnny2dBG63v5988EHpFIyAQofE0zl1OjlJNjeT7e3SSRgBhQ5JculS8vrrpVPA7Waz5OOPS6dgJBQ6rKwkjz+ePPRQ6SRwy8nJ8tz8++9LJ2EkFDpcvpy8807pFHA7Z+fcIYUOzs+pzXyerK8nBwelkzAiCp1pO3cuefrp5N57SyeBW2azZHW1dApGRqEzbQ8+6HU7dTk+Tj79NPn119JJGBmFzrTdf3/ywgulU8Ate3vJ2lrpFIyQQme6zp9PXnqpdAq45ego+eyz0ikYKYXOdF286GM46vLDD8nnn5dOwUgpdKbr0Ue9bqceh4fJRx+VTsGIKXSm6cIFT+fUY7FIdnaSjY3SSRgxhc40+e85NXHFKx1Q6EyPZTVqcnqabG2ZR+XMFDrT4+mcmrjilY4odKbHshq1MMBChxQ602JZjZo4O6dDCp1psaxGLW7eXH7V7umcjih0psX5ObXY30+uXCmdgoYodKbDshq1mM+Tq1cNsNAphc50WFajFtevOzuncwqd6bCsRg2OjpbzqDdulE5CYxQ602BZjVoYYKEnCp1psKxGDcyj0iOFzjRYVqO0xSK5ds3TOb1R6LTPsho1mM3Mo9IrhU77/Pec0haLZHfXAAu9Uui0zbIaNTDAwgAUOm3zdE5pJyfJ5mayvV06CY1T6LTNshqlGWBhIAqddllWozTzqAxIodMuy2qU5uycASl02uX8nJLm82R9PTk4KJ2EiVDotOmee5Lnn7esRjmzWbK6WjoFE6LQadOlS8kbb5ROwVQdHy8HWMyjMiCFTpssq1HS3l6ytlY6BROj0GmPZTVKMsBCIQqd9njdTknmUSlEodOeRx5x1StlHB4aYKEYhU5bLKtRymKR7OwkGxulkzBRCp22PPBA8tprpVMwRa54pTCFTjtWVpInn1z+YEinp8nWlnlUilLotMPNcJTiilcqoNBph2U1SjDAQiUUOm04dy555hnLagzP2TmVUOi0wdM5Jdy8ufyq3dM5FVDotMH5OSXs7ydXrpROAUkUOi2wrEYJ83ly9aoBFqqh0Bk/V71SwvXrzs6pikJn/CyrMbSjo+U86o0bpZPAHxQ642ZZjRIMsFAhhc64ed3O0MyjUimFzrhZVmNIi0Vy7Zqnc6qk0Bkvy2oMbTYzj0q1FDrjZVmNIS0Wye6uARaqpdAZJ8tqDM0AC5VT6IyTm+EY0slJsrmZbG+XTgJ/SaEzTu5uZ0gGWBgBhc74WFZjSOZRGQmFzvh4OmdIzs4ZCYXO+Dg/ZyjzebK+nhwclE4C/5dCZ1wsqzGk2SxZXS2dAv4Rhc64uOqVoRwfLwdYzKMyEgqdcbGsxlD29pK1tdIp4B9T6IyHZTWGYoCFEVLojIfX7QzFPCojpNAZD8tqDOHw0AALo6TQGQfLagxhsUh2dpKNjdJJ4I4pdMbh8uXk7bdLp6B1rnhlxBQ69VtZSR5/3FWv9Ov0NNnaMo/KaCl06udmOIbgildGTqFTv8uXk3feKZ2ClhlgoQEKnbqdO5c8/bSrXumXs3MaoNCpm2U1+nbz5vKrdk/njJxCp27Oz+nb/n5y5UrpFHBmCp16nT+fvPKK1+30Zz5Prl41wEITFDr1unjR0zn9un7d2TnNUOjUy7IafTo6Ws6j3rhROgl0QqFTpwsXkjffLJ2ClhlgoTEKnTr5GI4+mUelQQqdOllWoy+LRXLtmqdzmqPQqY9lNfo0m5lHpUkKnfpYVqMvi0Wyu2uAhSYpdOpiWY0+GWChYQqduvgYjr6cnCSbm8n2dukk0AuFTl0sq9EXAyw0TqFTD8tq9MU8KhOg0KmHZTX64uycCVDo1MP5OX2Yz5P19eTgoHQS6JVCpw6W1ejLbJasrpZOAb1T6NTBshp9OD5eDrCYR2UCFDp1sKxGH/b2krW10ilgEAqd8iyr0QcDLEyMQqc8H8PRB/OoTIxCpzzLanTt8NAAC5Oj0CnLshpdWyySnZ1kY6N0EhiUQqcsy2p0zRWvTJRCpxzLanTt9DTZ2jKPyiQpdMrxMRxdc8UrE6bQKceyGl0ywMLEKXTKsKxG15ydM3EKnTIsq9GlmzeXX7V7OmfCFDplOD+nS/v7yZUrpVNAUQqd4VlWo0vzeXL1qgEWJk+hMzzLanTp+nVn5xCFTgkPP2xZjW4cHS3nUW/cKJ0EilPoDOvCheTll0unoBUGWOAPCp1h+RiOrphHhdsodIZlWY0uLBbJtWuezuG/KHSGc/Gi/57TjdnMPCr8iUJnOC6ToQuLRbK7a4AF/kShMwzLanTFAAv8TwqdYVy6lLzxRukUjN3JSbK5mWxvl04C1VHoDOOBB7xu5+wMsMBfUuj0z7IaXTCPCn9LodM/H8PRBWfn8LcUOv27dCl59dXSKRiz+TxZX08ODkongWopdPp1/nzy0kulUzB2s1myulo6BVRNodMvy2qc1fHxcoDFPCr8LYVOvyyrcVZ7e8naWukUUD2FTn8sq3FWBljgH1Po9MeyGmdlHhX+MYVOfyyrcRaHhwZY4A4odPphWY2zWCySnZ1kY6N0EhgNhU4/XCbDWbjiFe6YQqd7ltU4i9PTZGvLPCrcIYVO9yyrcRaueIV/RaHTPctq/FsGWOBfu7t0ABpjWY2zuOuu5Lnnkg8/XB7dcHYrK8lvvyVffpl88UXpNPRIodMtH8NxFnffnTzxxPJHd378Mfnmm9Ip6JlX7nTLshrU5fh4eXXuTz+VTkLPFDrdsawGdVkskm+/dRf+RCh0umNZDery88/J+++XTsFAFDrdsawG9Tg+Tj75xD8GJkSh0w3LalAPr9onSaHTDctqUA+v2idJodMNy2pQB6/aJ+s/AAAA///s3T1rXNcWBuClO5cZzSQkKEIQggolQgQiSIqQHxAISZEqPyh/wFiuTcAOKexetXHhJo1b48pGuLJsgxCYOEJgfAvFyXX8oZnztc6Z/Tww/epe9rvP7CXQqc9mNegHVXvRBDr1eUwG+kHVXjSBTj02q0E/qNqLJ9CpZ20t4qefsqeAsqnaCYFOXb5uh3yqdkKgU4fNapDvjz8i9vdV7Qh0avjoI3U7ZDs4iPjll+wp6AGBTnXvv++pV8j06JGqnb8JdKqxWQ1ynZxE3LgRcedO9iT0hECnGpvVINe9exGXLmVPQY8IdKr55BN1O2RRtfMGAp3Fvfee0zlkUbXzFgKdxfnvOeRRtfMWAp3FrKxEbG/brAYZVO28g0BnMU7nkEPVzjkEOouxWQ1yqNo5h0BnfjarQQ5VO3MQ6MzPZjXonqqdOQl05uf+HLqnamdOAp352KwG3VO1swCBznxsVoNunZ5G/P67qp25CXTmY7MadOv+/Yi9vewpGBCBzvlsVoNuHR1FXL0a8exZ9iQMiEDnfDarQXdOTyNu3Yq4eTN7EgZGoHM+m9WgO6p2KhLovJvNatAdVTs1CHTezX/PoRuqdmoS6LydzWrQHVU7NQl03s7pHLqhaqcBAp23s1kN2qdqpyECnTezWQ26oWqnIQKdN7NZDdqnaqdBAp03c38O7VK10zCBzutsVoP2qdppmEDndTarQbtU7bRAoPM6m9WgPap2WiLQeZXNatCux48jLl/OnoIlJNB5lc1q0J7j44grVyKePMmehCUk0HmVzWrQjufPI27fjtjfz56EJSXQ+YfNatCehw8jLl7MnoIlJtD5xwcfRHz3XfYUsHxU7XRAoHNmZSXi00/PfkBzVO10RKBzxstw0A5VOx0R6JyxWQ2ap2qnQwKds6dev/jCZjVokqqdjgl0nM6hDap2OibQcX8OTVO1k0Cgl248jvj6a5vVoCmqdpII9NJ9+GHE999nTwHLQ9VOEoFeOpvVoDmqdhIJ9JLZrAbNefEi4u5dVTtpBHrJ1O3QnMPDiL297CkomEAv2ccfR+zuZk8Bw/f0acS1axEHB9mTUDCBXiqb1aAZL6v269ezJ6FwAr1UNqtBMw4PIy5cyJ4CBHqRbFaDZqja6RGBXiIvw0F9qnZ6RqCXyNvtUJ+qnZ4R6KWxWQ3qU7XTQwK9NE7nUI+qnZ4S6KVxfw71qNrpKYFeEpvVoB5VOz0m0EviqVeoTtVOzwn0ktisBtWp2uk5gV4Km9WgOlU7AyDQS6Fuh+oePFC103sCvRQ2q0E1jx6p2hkEgV4Cm9WgmpOTiBs3Iu7cyZ4EziXQS2CzGlRz717EpUvZU8BcBPqys1kNqlG1MzACfdl5GQ4Wp2pngAT6svN2OyxO1c4ACfRl9p//RHz+uc1qsAhVOwMl0JfZaBTx7bfZU8BwqNoZMIG+zEajiG++yZ4ChkPVzoD9N3sAWnRyEvHDD9lT8C7jccSPP0b8/HP2JKjaGTgndMg0m0V89VX2FKjaWQICHTJNJhHb29lToGpnCQh0yDSbeWM/m6qdJSHQIctoFLGzkz1F2VTtLBGBDllms4gvv8yeomwHBxGXL2dPAY0Q6JDFB3G5jo4irl6NePYsexJohECHLJNJxGefZU9RptPTiFu3Im7ezJ4EGiPQIcPKSsTmZsR0mj1Jme7fj9jby54CGiXQIYO6PY+qnSUl0CGDD+JyqNpZYgIdMkynAj2Dqp0lJtAhw9qa+/OuqdpZcgIdura66nTeNVU7BRDo0DX3591TtVMAgQ5dE+jdUrVTCIEOXVtfj9jYyJ6iDKp2CiLQoUvjsdfhuqRqpyACHbrkQZnuqNopjECHLrk/74aqnQIJdOjSdBqxtZU9xfJ7/NhaVIoj0KEr47HTeReOjyOuXIl48iR7EuiUQIeuuD9v3/PnEbdvR+zvZ08CnRPo0JXJJGJ7O3uK5fbwYcTFi9lTQAqBDl2ZzSJ2d7OnWF6qdgon0KELo1HEzk72FMtL1Q4CHTrh72rtUrWDQIdO+CCuPap2iAiBDt2YTDz52gZVO/xNoEPbVlYiNjfPHpWhWap2+JtAh7ap29uhaodXCHRomw/imqdqh9cIdGjbdCrQm6Zqh9cIdGjb2pr78yap2uGNBDq0aXXV6bxJL15E3L2raoc3EOjQJvfnzTo8jNjby54CekmgQ5sEenOePo24di3i4CB7EuglgQ5tWl+P2NjInmL4Xlbt169nTwK9JdChLeOx1+GacngYceFC9hTQawId2uJBmWao2mEuAh3a4v68PlU7zE2gQ1um04itrewphk3VDnMT6NCG8djpvC5VOyxEoEMb3J/Xo2qHhQl0aMNkErG9nT3FcKnaYWECHdowm0Xs7mZPMUyqdqhEoEPTRqOInZ3sKYZJ1Q6VCXRomr+rVadqh8oEOjTNB3HVqNqhFoEOTZtMPPlaxYMHqnaoQaBDk1ZWIjY3zx6VYX6PHqnaoSaBDk1Sty/u5CTixo2IO3eyJ4FBE+jQJB/ELe7evYhLl7KngMET6NCk6VSgL0LVDo0R6NCktTX35/NStUOjBDo0ZXXV6XwRqnZolECHprg/n5+qHRon0KEpAn0+qnZohUCHpqyvR2xsZE/Rf6p2aIVAhyaMx16Hm4eqHVoj0KEJHpQ5n6odWiXQoQnuz8+naodWCXRownQasbWVPUV/qdqhdQId6hqPnc7fRdUOnRDoUJf783dTtUMnBDrUNZlEbG9nT9FPR0cRv/2WPQUUQaBDXbNZxO5u9hT9c3oacetWxM2b2ZNAEQQ61DEaRezsZE/RT/fvR+ztZU8BxRDoUIe/q73Z0VHE1asRz55lTwLFEOhQhw/iXqdqhxQCHeqYTDz5+m+qdkgh0KGqlZWIzc2zR2U4o2qHNAIdqlK3v0rVDqkEOlTlg7hXqdohlUCHqqZTgf6Sqh3SCXSoam3N/XmEqh16QqBDFaurTucvqdqhFwQ6VOH+/IyqHXpDoEMVAl3VDj0j0KGK9fWIjY3sKXIdHkZcvJg9BfAXgQ6LGo+9Dnd8HPHrrxF//pk9CfAXgQ6LKv1BmefPI27fjtjfz54E+D8CHRZV+v35w4eqdughgQ6Lmk4jtrayp8hxfBxx5UrEkyfZkwD/ItBhEeNxuadzVTv0mkCHRZR8f65qh14T6LCIySRiezt7iu6p2qH3BDosYjaL2N3NnqJbqnYYBIEO8xqNInZ2sqfonqodBkGgw7xK/Luaqh0GQ6DDvEr7IE7VDoMi0GFek0lZT76q2mFQ/gcAAP//7d2/a1vXH8fhj+ovkq7aRQh10mAQnry0f1X/l5Bka8mSlA4xpVumDsFD6FLIagKFhIxxkhIMLqkJpP4OIm3i+IdsX+ncc87zrA3S2V7c95FvBR2W0etFzGaLl8rUwNQO2RF0WEZNc7upHbIk6LCMmn4Q9+pVxJ07qU8BXJKgwzKapo6gHx5G3L8f8fx56pMAlyTosIzxuPz78+PjiCdPInZ2Up8EuAJBh4sMh3U8ne/vR9y4kfoUwBUJOlykhvtzUztkT9DhIqUH3dQORRB0uMhkEjGdpj7F6pjaoQiCDufp98t+O5ypHYoh6HCekl8oY2qHogg6nKfk+3NTOxRF0OE8TROxuZn6FO0ztUNxBB3O0u+X+XRuaociCTqcpdT7c1M7FEnQ4SyDQcR8nvoU7TK1Q7EEHc4yGkVsb6c+RXtM7VA0QYfTbGxEbG2lPkW7Xr2K+P771KcAVkTQ4TSl/bna0VHEw4cRe3upTwKsiKDDaUr7QdzTpxG3b6c+BbBCgg6nGQzKeeXry5d+1Q4VEHQ4qdeLmM0WL5XJnakdqiHocFJJc7upHaoh6HBSKT+IM7VDVQQdTmqa/INuaofqCDqcNB7nf39uaofqCDp8bDjM/+nc1A5VEnT4WO7356Z2qJagw8dyD7qpHaol6PCxySRiOk19iqsxtUPVBB0+6PfzfTucqR2qJ+jwQc4vlDG1Q/UEHT7I9f78zZuIn35KfQogMUGHD5omYnMz9Sku5927iEePInZ3U58ESEzQIWJxf57j0/mzZxG3bqU+BdABgg4Red6fv3kTce9exNu3qU8CdICgQ8Ti/38+n6c+xfJM7cAJgg4Riyf07e3Up1ieqR04QdBhYyNiayv1KZZnagdOIeiQ05+rmdqBMwg65PSDOFM7cAZBh8Egj1e+mtqBcwg6dev1ImazxUtluszUDlxA0KlbLnO7qR24gKBTtxx+EGdqB5Yg6NStaboddFM7sCRBp27jcbfvz/f3I27eTH0KIAOCTr2Gw24/nR8cRPz4Y8Tff6c+CZABQadeXb4/f/8+4vHjiAcPUp8EyISgU68uB/3FC1M7cCmCTr0mk4jpNPUpPndwEHH3bsTr16lPAmRE0KlTv9/Nt8OZ2oErEnTq1NUXypjagSsSdOrUxftzUztwDYJOnZomYnMz9Sn+Y2oHrknQqU+/372nc1M7cE2CTn26dn9uagdaIOjUZzCImM9Tn2LB1A60RNCpz2gUsb2d+hQLpnagJYJOXTY2Ira2Up9iwdQOtEjQqUtX/lzN1A60TNCpS1d+EPfqVcSdO6lPARRE0KnLYJD+la+HhxH370c8f572HEBRBJ169HoRs9nipTKpHB9HPHkSsbOT7gxAkQSdenRhbt/fj7hxI+0ZgCIJOvVI/YM4UzuwQoJOPZomXdBN7cCKCTr1GI/T3Z+b2oEVE3TqMBymezo3tQNrIOjUIdX9uakdWBNBpw6pgm5qB9ZE0KnDZBIxna73O03twBoJOuXr99f/djhTO7Bmgk75UrxQxtQOrJmgU75135+b2oEEBJ3yNU3E5uZ6vsvUDiQi6JSt31/v07mpHUhE0CnbOu/Pj44idndN7UASgk7ZBoOI+Xw93/X0acTt2+v5LoATBJ2yjUYR29ur/56XL03tQFKCTrk2NiK2tlb/PUdHEQ8fRuztrf67AM4g6JRrXX+uZmoHOkDQKdc6fhBnagc6QtAp12Cw2le+mtqBDhF0ytTrRcxmi5fKrIqpHegQQadMq57bTe1Axwg6ZVrlD+JM7UAHCTplaprVBd3UDnSQoFOm8Xg19+emdqCjBJ3yDIereTo3tQMdJuiUZ1X356Z2oMMEnfKsIuh//hnxww/tfiZAiwSd8kwmEdNpe5/37l3Eb79F/P57e58J0DJBpyz9fvtvh3v2LOLWrXY/E6Blgk5Z2n6hzJs3EffuRbx9295nAqyAoFOWNu/P372LePQoYne3nc8DWCFBpyxNE7G52c5nmdqBjAg65ej323s6N7UDmRF0ytHW/bmpHciQoFOOwSBiPr/+55jagQwJOuUYjSK2t6/3GaZ2IFOCThk2NiK2tq73GaZ2IGOCThna+HM1UzuQMUGnDNf9QZypHcicoFOGweDqr3w1tQMFEHTy1+tFzGaLl8pchakdKICgk7/rzO0HBxG//GJqB7In6OTvqj+Ie/8+4vHjiAcP2j8TwJoJOvlrmqsF/cWLiJs32z8PQAKCTv7G48vfnx8cRNy9G/H69WrOBLBmgk7ehsPLP52b2oECCTp5u8r9uakdKJCgk7fLBt3UDhRK0MnbZBIxnS73b03tQMEEnXz1+5d7O5ypHSiYoJOvy7xQxtQOFE7Qydey9+emdqACgk6+miZic/Pif2dqByog6OSp31/u6dzUDlRC0MnTMvfnpnagIoJOngaDiPn8/H9jagcqIujkaTSK2N4++78fHkb8/LOpHaiGoJOfjY2Ira2z//vxccSTJxE7O+s7E0Bigk5+Lvpztf39iBs31ncegA4QdPJz3g/iDg8j7t+PeP58vWcCSEzQyc9gcPorX03tQMUEnbz0ehGz2eKlMieZ2oGKCTp5OWtuN7UDlRN08nLaD+JM7QCCTmaa5vOgm9oBBJ3MjMef3p+b2gEiQtDJyXD46dO5qR3gX4JOPk7en5vaAf4l6OTj46Cb2gE+IejkYzKJmE5N7QCnEHTy0O//93Y4UzvAZwSdPIxGEd98s3g63901tQOcIOjk4cP9+R9/RNy+nfo0AJ3zv9QHgKV89VXE119HfPdd6pMAdJIndLpvMIiYzyN+/TViby/1aQA6SdDpvtEo4ssv/RAO4By942+/PU59CDjXF18sov7XX6lPAtBZntDpvn/+EXOACwg6ABRA0AGgAIIOAAUQdAAogKADQAEEHQAKIOgAUABBB4ACCDoAFEDQAaAAgg4ABRB0ACiAoANAAQQdAAog6ABQAEEHgAIIOgAUQNABoACCDgAFEHQAKICgA0ABBB0ACiDoAFAAQQeAAvwfFiQGU2mDr48AAAAASUVORK5CYII=;imageBorder=default;strokeWidth=2;" parent="35" vertex="1">
                    <mxGeometry x="10" width="90" height="90" as="geometry"/>
                </mxCell>
                <mxCell id="19" value="Modelagem da&lt;br&gt;rede no ANAREDE" style="rounded=0;whiteSpace=wrap;html=1;strokeWidth=2;" parent="35" vertex="1">
                    <mxGeometry y="90" width="110" height="50" as="geometry"/>
                </mxCell>
            </root>
        </mxGraphModel>
    </diagram>
</mxfile>